<svg xmlns="http://www.w3.org/2000/svg" viewBox="0 0 341.75 387.55"><defs><style>.cls-1{fill:#0170ba;}.cls-2{fill:#29a9df;}.cls-3{fill:#cfcfcf;}.cls-4{fill:#fff;}</style></defs><title>css3</title><g id="Capa_2" data-name="Capa 2"><g id="Capa_1-2" data-name="Capa 1"><path class="cls-1" d="M0,0Q170.88,0,341.75,0c-6.27,70.85-12.44,141.7-19,212.53q-5.82,67.91-12.1,135.78c-24.31,6.44-48.38,13.78-72.68,20.25-22.32,6.55-44.82,12.48-67.15,19h-.66c-21.25-6.32-42.71-11.88-64-18.2-25.08-6.76-49.94-14.3-75-21-3.27-33.91-6.22-67.84-9.13-101.77-5.49-62.69-11.46-125.34-16.74-188C3.5,39.64,2.19,20.71,0,1.88V0M171.41,28c-.24,13.61.18,27.23-.24,40.83-39.08-.14-78.17,0-117.25,0,.67,13.21,2.44,26.33,4.26,39.43,36.36,1.35,72.77,0,109.13,1-31.81,14.27-64,27.71-96,41.68-2.74,1.22-5.67,2.14-8.12,3.92.27,14.51,2.61,28.94,3.64,43.42,19.38-.07,38.75-.38,58.13-.41,15.53-.08,31.07.23,46.6-.11-.74,23.86.23,47.75-.5,71.61-10.45-1.55-20.77-3.88-31.18-5.73-8.21-1.79-16.62-2.72-24.71-5.07-1.15-11.45-1.95-22.94-3-34.4a25.89,25.89,0,0,0-7.24-.69c-11.74.07-23.49,0-35.24.14a654.93,654.93,0,0,0,6.5,65.85c11.58,3,23.18,6,34.74,9.13,17.71,4.82,35.64,8.83,53.38,13.57,2.11.45,4.24,1.23,6.43,1.05,1.18,14.49.27,29.07.49,43.6a88.92,88.92,0,0,0,12.06-2.89c33.58-9.12,67.12-18.41,100.68-27.62,1.67-13.2,2.45-26.49,3.77-39.72Q293,226.27,298.48,166c4.29-46,8-92,12.32-138C264.33,27.94,217.87,27.81,171.41,28Z"/><path class="cls-2" d="M171.41,28c46.46-.15,92.92,0,139.39-.06-4.32,46-8,92.05-12.32,138Q293,226.27,287.81,286.6c-1.32,13.23-2.1,26.52-3.77,39.72-33.56,9.21-67.1,18.5-100.68,27.62a88.92,88.92,0,0,1-12.06,2.89c-.22-14.53.69-29.11-.49-43.6L172,313c31.23-7.84,62.25-16.47,93.41-24.59,3.94-44.2,8.31-88.38,11.08-132.67-26.5.14-53,.06-79.51.17-3.86,0-7.72,0-11.56-.28,14.26-7.34,29.26-13.16,43.9-19.71,14-6.37,28.27-12.34,42.37-18.59,2.72-1.25,5.62-2.29,8-4.15.94-3.45.89-7.06,1.26-10.59.81-11.2,2.25-22.34,2.79-33.55-37.53-.3-75.06,0-112.6-.24C171.59,55.19,171.17,41.57,171.41,28Z"/><path class="cls-2" d="M171.6,197.77c18.12-.31,36.25.18,54.38.06-1,18.53-2.55,37-3.51,55.56-11.11,3.63-22.39,6.7-33.59,10.06-6,1.82-12.1,3.26-17.78,5.93C171.83,245.52,170.86,221.63,171.6,197.77Z"/><path class="cls-3" d="M53.92,68.8c39.08,0,78.17-.15,117.25,0,.51,43-.13,86,.43,129-15.53.34-31.07,0-46.6.11-19.38,0-38.75.34-58.13.41-1-14.48-3.37-28.91-3.64-43.42,2.45-1.78,5.38-2.7,8.12-3.92,32-14,64.15-27.41,96-41.68-36.36-1.09-72.77.31-109.13-1C56.36,95.13,54.59,82,53.92,68.8Z"/><path class="cls-3" d="M69.76,223.63c11.75-.18,23.5-.07,35.24-.14a25.89,25.89,0,0,1,7.24.69c1,11.46,1.82,22.95,3,34.4,8.09,2.35,16.5,3.28,24.71,5.07,10.41,1.85,20.73,4.18,31.18,5.73,1,14.52-.75,29.14.92,43.61l-1.21.24c-2.19.18-4.32-.6-6.43-1.05-17.74-4.74-35.67-8.75-53.38-13.57-11.56-3.15-23.16-6.11-34.74-9.13A654.93,654.93,0,0,1,69.76,223.63Z"/><path class="cls-4" d="M171.17,68.79c37.54.2,75.07-.06,112.6.24-.54,11.21-2,22.35-2.79,33.55-.37,3.53-.32,7.14-1.26,10.59-2.39,1.86-5.29,2.9-8,4.15-14.1,6.25-28.32,12.22-42.37,18.59-14.64,6.55-29.64,12.37-43.9,19.71,3.84.28,7.7.3,11.56.28,26.5-.11,53,0,79.51-.17-2.77,44.29-7.14,88.47-11.08,132.67C234.27,296.52,203.25,305.15,172,313c-1.67-14.47.08-29.09-.92-43.61,5.68-2.67,11.81-4.11,17.78-5.93,11.2-3.36,22.48-6.43,33.59-10.06,1-18.53,2.5-37,3.51-55.56-18.13.12-36.26-.37-54.38-.06C171,154.79,171.68,111.79,171.17,68.79Z"/></g></g></svg>