<svg xmlns="http://www.w3.org/2000/svg" viewBox="0 0 178.77 153.83"><defs><style>.cls-1{fill:#c1eff5;}.cls-2{fill:#230101;fill-opacity:0.22;}.cls-3{fill:#ffd9aa;}.cls-4{fill:#5bb3b8;}.cls-5{fill:#fff;}.cls-6{fill-opacity:0.07;}.cls-7{fill:#fa5422;}</style></defs><title>design</title><g id="Capa_2" data-name="Capa 2"><g id="Capa_1-2" data-name="Capa 1"><g id="layer1"><path d="M178.77,121.33h0L177.67,3.44A3.44,3.44,0,0,0,174.22,0L3.38,1.6A3.44,3.44,0,0,0,0,5.1L1.11,123a3.42,3.42,0,0,0,3.44,3.43l64.92-.61.2,20.81-27.34.26a3.47,3.47,0,0,0,.07,6.94h0l95.67-.9A3.47,3.47,0,0,0,138,146l-27.33.26-.2-20.81,64.92-.61a3.43,3.43,0,0,0,3.38-3.5m-6.86-3.4-164,1.54-1-111L170.87,7Z"/><path class="cls-1" d="M170.87,7l1,111-164,1.54-1-111Z"/></g><g id="layer2"><path class="cls-2" d="M78.7,21.44q4.81,1.54,7.64,9.32-14.11-4.29-8-9.29Zm21.22,1.61.26,0q8.56,2.42-9,8.25C93.13,27,96,24.26,99.92,23.05Zm-20-6.28-3,.68Q66.1,26.72,81.65,32.8h0l-13.9-.7L66.89,48l2.86.17-.69,23.13,15.22.78h0v0l6.45.31h0l15.22.78L107.16,50l3.28-.06.49-15.58v-.07l-13.64-.68h0q10.47-3.27,8.08-9.09-3.51-4.87-7-5.06Q93.65,19.2,89,27.51,85,19,79.87,16.77ZM54.52,73.05a2,2,0,0,0-1.34.27l0,0c-.61.39-.48,1.61.4,3.65Q75.89,90.3,88,94.77A117.08,117.08,0,0,1,103.34,94l.4,0a22.61,22.61,0,0,1,9.06,2q5.61,2.82,8.61,11.08h0l-2.2,1.8,5.7,10,24-1.36-15.77-20,0,0-.68.56h0q-7-11.49-9.65-14.25A18.32,18.32,0,0,0,119.67,81a48.67,48.67,0,0,1-4.5-3.14,9.44,9.44,0,0,0-2.06-1,26.66,26.66,0,0,0-6.56-1c-.86,0-1.78-.07-2.74-.07a20.72,20.72,0,0,0-3.79.33,9.11,9.11,0,0,0-1.21.36l-2.55,1.08a8.16,8.16,0,0,1-2.08.35,20,20,0,0,1-2.32,0l-.58,0c-4.54-.38-7.2-.6-8-.64a.7.7,0,0,0-.23,0,21.6,21.6,0,0,0-3.17,0,3,3,0,0,0-1.77.61c-.3.07-.52.87-.66,2.38-.1.25-.45.35-1.06.33a16.84,16.84,0,0,1-3.67-1l-11-4.34-4.12-1.47A13,13,0,0,0,54.52,73.05Z"/><path class="cls-3" d="M59,74.09c-.61.39-.47,1.61.41,3.66Q81.78,91,93.87,95.51a112,112,0,0,1,15.77-.72,22.78,22.78,0,0,1,9.06,2q6,3,9,12.17l11.88-8.12q-8-13.25-10.86-16.24a19.14,19.14,0,0,0-3.13-2.87,48.59,48.59,0,0,1-4.5-3.13,10,10,0,0,0-2.06-1,32.52,32.52,0,0,0-9.3-1.09,19.62,19.62,0,0,0-3.79.34,7.53,7.53,0,0,0-1.21.35l-2.55,1.09a9.16,9.16,0,0,1-2.08.35,24.69,24.69,0,0,1-2.9-.05C91.77,78.17,89,78,89,78a21.4,21.4,0,0,0-3.17,0,2.9,2.9,0,0,0-1.77.6c-.29.08-.51.87-.66,2.39-.09.24-.45.35-1.05.32a16.13,16.13,0,0,1-3.67-1l-11-4.34-4.12-1.47c-2.38-.75-3.87-.88-4.46-.41"/><path class="cls-4" d="M139,98.3l-13.91,11.37,4.27,8.61h25.44l-15.77-20Z"/><path class="cls-5" d="M116.83,35l-18.07-.9h0l-.23,0h0l-.22,0a3.44,3.44,0,0,0-.55,0L97.26,34h0L73.64,32.84l-.85,15.87,2.86.16L75,72l36.89,1.91,1.21-23.2,3.28-.06.49-15.58Z"/><path class="cls-6" d="M113.59,38.36,76.51,36.52h-.13c-.11,0-.14,0-.09,0l-.07,8.61h.06l36.84,1.77.47-8.54ZM109.94,48.8,79.33,47.23,78.05,68.57l30.73,1.62,1.15-21.33Z"/><path class="cls-7" d="M97.47,34.07,91.86,34V34L90.18,72.81l6.45.32,1.73-39H98.3a3.44,3.44,0,0,0-.55,0Z"/><path class="cls-7" d="M84.6,22.17c3.21,1,5.76,4.14,7.64,9.33q-14.11-4.3-8-9.3m21.81,1.61q8.55,2.42-9,8.25,2.86-6.47,8.7-8.28m-23-5.6q-12,10.28,8.37,16.62-1.35-1.45-7.52,5.87,2.64-1,1.62,2.73,4.23-9.19,16.55.11c-.12-1.53.75-2.24,2.62-2.12q-6.24-4.86-5.83-5.9,15.51-3.3,12.65-10.26-8.25-11.46-16.4,3-4-8.49-9.11-10.73l-3,.67Z"/></g></g></g></svg>