<svg xmlns="http://www.w3.org/2000/svg" viewBox="0 0 300.21 347.26"><defs><style>.cls-1{fill:#f16528;}</style></defs><title>html5</title><g id="Capa_2" data-name="Capa 2"><g id="Capa_1-2" data-name="Capa 1"><g id="Camada_1"><path class="cls-1" d="M6,0H294.23a6,6,0,0,1,6,6.07,2.34,2.34,0,0,1-.08.74L276.67,300.52a6,6,0,0,1-4.34,5.34L152,347a5.93,5.93,0,0,1-3.77,0C108,333.5,67.77,319.47,27.66,305.77a6,6,0,0,1-4.1-5.25L0,6.48A6,6,0,0,1,5.59.08ZM119.19,225.89V212.11a6,6,0,0,0-6-6H77.85a6,6,0,0,0-6,6v44A6.07,6.07,0,0,0,76.46,262l74.07,23.29a5.67,5.67,0,0,0,4.34-.33l68.24-28a6.15,6.15,0,0,0,3.7-5h0l9.59-109.42a6,6,0,0,0-5.49-6.48H110.17l-1.56-29.44H235.83a6,6,0,0,0,6-6V65.37a6,6,0,0,0-6-6H65.06a6,6,0,0,0-6,6l.08.74L65,177.66a6,6,0,0,0,6,5.66v.08H185.3l-3.44,39.37-31.42,13Zm78.74-48.56a6,6,0,0,0-6.07-6H76.71l-5.33-100H229.84V94.65H102A6,6,0,0,0,96.31,101l2.13,41v.08a6,6,0,0,0,6,6H223.85l-8.69,99.24L152,273.21,83.92,251.72V218.09h23.22v12.14A6.12,6.12,0,0,0,111.4,236l37.49,11.82a6.43,6.43,0,0,0,4.1-.17l36.33-14.93a5.87,5.87,0,0,0,4.18-5.25L197.85,178Z"/></g></g></g></svg>