<svg xmlns="http://www.w3.org/2000/svg" viewBox="0 0 99.81 101.12"><defs><style>.cls-1{fill:#ff8700;}</style></defs><title>typo3</title><g id="Capa_2" data-name="Capa 2"><g id="svg7592"><path id="path5775" class="cls-1" d="M75.52,69.69a14,14,0,0,1-4.26.59c-12.84,0-31.7-44.87-31.7-59.8,0-5.5,1.31-7.34,3.14-8.91C27,3.41,8.12,9.17,2.1,16.51.79,18.34,0,21.22,0,24.89c0,23.32,24.89,76.23,42.44,76.23,8.12,0,21.82-13.36,33.08-31.43"/><path id="path5779" class="cls-1" d="M67.33,0C83.57,0,99.81,2.62,99.81,11.79,99.81,30.39,88,52.92,82,52.92c-10.74,0-24.1-29.86-24.1-44.8C57.9,1.31,60.52,0,67.33,0"/></g></g></svg>